HIERARCHY
ROOT Hips
{
	OFFSET -3.958830 18.904000 13.208200
	CHANNELS 6 Xposition Yposition Zposition Zrotation Yrotation Xrotation 
	JOINT LHipJoint
	{
		OFFSET 0.000000 0.000000 0.000000
		CHANNELS 3 Zrotation Yrotation Xrotation
		JOINT LeftUpLeg
		{
			OFFSET 1.800000 -1.400000 0.085000
			CHANNELS 3 Zrotation Yrotation Xrotation
			JOINT LeftLeg
			{
				OFFSET 2.215000 -6.000000 0.000000
				CHANNELS 3 Zrotation Yrotation Xrotation
				JOINT LeftFoot
				{
					OFFSET 2.500000 -6.900000 0.000000
					CHANNELS 3 Zrotation Yrotation Xrotation
					JOINT LeftToeBase
					{
						OFFSET 0.200000 -0.500000 1.950000
						CHANNELS 3 Zrotation Yrotation Xrotation
						End Site
						{
							OFFSET 0.000000 0.000000 0.000000
						}
					}
				}
			}
		}
	}
	JOINT RHipJoint
	{
		OFFSET 0.000000 0.000000 0.000000
		CHANNELS 3 Zrotation Yrotation Xrotation
		JOINT RightUpLeg
		{
			OFFSET -1.800000 -1.400000 0.085000
			CHANNELS 3 Zrotation Yrotation Xrotation
			JOINT RightLeg
			{
				OFFSET -2.215000 -6.000000 0.000000
				CHANNELS 3 Zrotation Yrotation Xrotation
				JOINT RightFoot
				{
					OFFSET -2.500000 -6.900000 0.000000
					CHANNELS 3 Zrotation Yrotation Xrotation
					JOINT RightToeBase
					{
						OFFSET -0.200000 -0.500000 1.950000
						CHANNELS 3 Zrotation Yrotation Xrotation
						End Site
						{
							OFFSET 0.000000 0.000000 0.000000
						}
					}
				}
			}
		}
	}
	JOINT LowerBack
	{
		OFFSET 0.000000 0.000000 0.000000
		CHANNELS 3 Zrotation Yrotation Xrotation
		JOINT Spine
		{
			OFFSET -0.087000 1.940000 -0.288900
			CHANNELS 3 Zrotation Yrotation Xrotation
			JOINT Spine1
			{
				OFFSET 0.000000 1.950000 0.060000
				CHANNELS 3 Zrotation Yrotation Xrotation
				JOINT Neck
				{
					OFFSET 0.000000 0.000000 0.000000
					CHANNELS 3 Zrotation Yrotation Xrotation
					JOINT Neck1
					{
						OFFSET 0.000000 1.600000 0.340000
						CHANNELS 3 Zrotation Yrotation Xrotation
						JOINT Head
						{
							OFFSET 0.000000 1.667000 -0.240000
							CHANNELS 3 Zrotation Yrotation Xrotation
							End Site
							{
								OFFSET 0.000000 0.000000 0.000000
							}
						}
					}
				}
				JOINT LeftShoulder
				{
					OFFSET 0.000000 0.000000 0.000000
					CHANNELS 3 Zrotation Yrotation Xrotation
					JOINT LeftArm
					{
						OFFSET 2.700000 1.550000 -0.730000
						CHANNELS 3 Zrotation Yrotation Xrotation
						JOINT LeftForeArm
						{
							OFFSET 5.450000 0.000000 0.000000
							CHANNELS 3 Zrotation Yrotation Xrotation
							JOINT LeftHand
							{
								OFFSET 3.450000 0.000000 0.000000
								CHANNELS 3 Zrotation Yrotation Xrotation
								JOINT LeftHandIndex1
								{
									OFFSET 0.750000 0.000000 0.000000
									CHANNELS 3 Zrotation Yrotation Xrotation
									End Site
									{
										OFFSET 0.000000 0.000000 0.000000
									}
								}
							}
						}
					}
				}
				JOINT RightShoulder
				{
					OFFSET 0.000000 0.000000 0.000000
					CHANNELS 3 Zrotation Yrotation Xrotation
					JOINT RightArm
					{
						OFFSET -2.700000 1.550000 -0.730000
						CHANNELS 3 Zrotation Yrotation Xrotation
						JOINT RightForeArm
						{
							OFFSET -5.450000 0.000000 0.000000
							CHANNELS 3 Zrotation Yrotation Xrotation
							JOINT RightHand
							{
								OFFSET -3.450000 0.000000 0.000000
								CHANNELS 3 Zrotation Yrotation Xrotation
								JOINT RightHandIndex1
								{
									OFFSET -0.750000 0.000000 0.000000
									CHANNELS 3 Zrotation Yrotation Xrotation
									End Site
									{
										OFFSET 0.000000 0.000000 0.000000
									}
								}
							}
						}
					}
				}
			}
		}
	}
}
MOTION
Frames: 10
Frame Time: 0.016667
-0.425770 17.097310 -0.045930 -1.690028 3.152219 -16.942011 -15.337635 11.736620 4.010345 1.725503 -9.707986 -32.139797 8.627189 9.520235 78.253287 1.201343 14.011207 0.079430 0.291240 0.589280 -0.477250 18.516253 -9.193632 3.664605 2.669429 12.167081 -28.859598 -4.589534 -11.737900 79.663662 -2.475297 -12.913682 0.170101 0.514130 1.391690 0.763670 -3.693068 -1.679235 -8.571125 4.987977 -3.497475 49.928895 -10.363266 3.373634 22.598466 1.523563 -0.974016 -8.164510 -3.963208 0.596958 30.475710 -3.565060 -1.091330 -11.362760 24.064392 -30.081849 -11.272280 31.385415 -40.476864 -12.958514 9.226078 -12.872773 -1.431217 -4.890502 2.863523 0.130620 0.852340 -0.011190 0.694440 -28.572357 32.000774 1.836573 -21.901778 11.715173 -10.983501 -17.572088 26.079053 -3.249589 1.636563 -2.201384 -0.212160 0.850560 0.348410 0.515810 
-0.408030 17.016520 -0.105610 -1.613955 -1.320520 -17.249208 -15.308875 11.887691 3.750945 1.111158 -8.543514 -29.831067 7.432534 10.284745 76.103807 1.016412 13.859665 0.102329 0.458360 0.828790 -0.379250 18.531310 -9.231711 3.780722 6.068021 12.645267 -26.145308 -3.629743 -11.024834 76.738237 -2.380296 -12.563126 0.214670 0.769100 1.450560 0.791360 -3.735088 -1.572421 -8.382264 4.637478 -2.407331 50.368611 -8.762361 4.033252 26.519863 0.653162 -1.309649 -8.364886 -2.898915 2.991972 26.204765 -4.735860 0.643410 -10.675180 30.214951 -27.879052 -11.849083 32.868299 -34.691778 -8.788000 4.067168 -4.868249 -1.141687 -5.096687 2.541699 0.007050 0.979010 -0.054480 0.756950 -32.717812 30.971557 -3.070789 -25.674593 16.450945 -8.637825 -15.555501 13.881388 -3.021501 1.873283 -2.088015 -0.237180 0.893680 0.264100 0.521650 
-0.381970 16.917680 -0.136830 -2.690333 -4.890577 -16.735289 -15.303808 11.994175 3.650029 2.489378 -8.012711 -28.353572 5.280227 11.550573 74.170640 0.919815 13.738321 0.107205 0.386320 0.743630 -0.395170 18.521375 -9.248892 3.836458 9.043454 12.300020 -24.363803 -4.757880 -9.757870 75.127561 -2.295555 -12.169353 0.319744 0.732920 1.429170 0.750720 -3.723220 -1.666728 -8.336794 5.352209 -2.288169 50.803577 -7.439279 3.615058 26.002221 0.541968 -1.802126 -7.904642 -3.305977 3.962001 26.550001 -5.427670 1.021520 -11.185900 30.212669 -26.830936 -9.716498 32.530831 -31.107590 -6.686690 1.907111 -4.331015 -0.956983 -5.022621 2.379916 0.054530 0.962020 -0.064310 0.694610 -32.221527 30.284809 -4.209591 -29.314354 19.915500 -10.398884 -16.973807 12.963302 -3.279366 1.935728 -1.925178 -0.288300 0.912680 0.317820 0.478380 
-0.389210 16.846190 -0.148130 -2.774079 -5.616297 -15.680677 -15.362602 12.010416 3.854189 3.368985 -8.891802 -28.464215 2.334137 13.260322 73.013618 0.950079 13.896340 0.159900 0.236950 0.546680 -0.477450 18.460917 -9.186356 3.677701 8.957321 11.263080 -24.622590 -5.824902 -9.165068 74.508057 -2.175048 -12.026185 0.429396 0.659520 1.529900 0.653020 -3.557601 -2.048878 -8.361589 4.604804 -1.941150 50.423009 -6.036696 3.227311 25.554567 0.454373 -0.665080 -8.030986 -1.531666 3.917848 26.973826 -5.187800 1.337650 -9.030310 29.394823 -25.886443 -8.192424 31.593054 -28.985820 -5.962301 3.114307 -5.296083 -0.866200 -4.994643 2.334217 0.081050 0.998940 -0.158170 0.704670 -31.256689 28.777528 -2.378693 -26.150601 18.554604 -13.998521 -28.231389 21.131989 -6.781538 1.989174 -2.187480 -0.436770 0.986110 0.335080 0.458020 
-0.386140 16.795980 -0.123680 -2.939064 -7.838969 -14.371676 -15.559764 11.969535 4.215092 6.592275 -9.970941 -29.873437 -2.901764 17.440298 72.938067 1.036451 14.814620 -0.037430 -0.023540 0.136010 -0.557970 18.315682 -8.713837 3.559921 9.022456 10.971872 -26.034511 -6.592948 -9.145028 75.516710 -2.058409 -12.137676 0.396639 0.500450 1.637130 0.517700 -3.092256 -3.060008 -8.550784 2.120719 -0.612162 49.100688 -2.240878 2.986008 25.122278 -0.108877 -0.560858 -8.055426 -1.591861 4.636445 28.669512 -4.811610 1.156730 -6.228810 28.106830 -25.501699 -5.980360 26.185736 -26.369909 -4.009792 7.617738 -4.878035 -1.443748 -5.131312 2.270969 0.169240 1.014660 -0.344120 0.569110 -28.919744 29.023069 -1.583892 -28.047108 20.738649 -17.296496 -35.968592 25.158752 -9.834565 1.948755 -1.993126 -0.666420 1.063750 0.501230 0.347350 
-0.387800 16.790410 -0.110540 -2.735076 -8.997917 -13.569111 -15.680084 11.812229 4.672384 9.675782 -11.090798 -32.058799 -7.477988 21.449136 73.608609 1.417703 15.651122 -0.213144 -0.257070 -0.235850 -0.682860 18.223892 -8.359867 3.457339 7.209593 10.943117 -27.912812 -5.031556 -11.162863 76.764922 -2.097193 -12.316832 0.375369 0.183420 1.588250 0.444500 -2.814546 -3.634445 -8.864577 1.498298 -0.083018 49.505419 -0.336285 2.882606 23.332000 -0.183254 -0.677298 -10.687592 -3.029146 3.961546 34.427519 -1.784150 -0.773330 -4.640210 25.376151 -28.331622 -3.347685 22.863878 -21.514939 -3.928446 9.347942 -7.050566 -1.467911 -4.935706 2.349636 0.330170 0.843060 -0.339910 0.483690 -26.100682 31.808968 0.687307 -27.926452 16.430405 -20.122375 -43.130074 35.767837 -13.674137 2.013452 -1.774981 -0.693050 1.016400 0.615990 0.328220 
-0.385020 16.808800 -0.069370 -1.991707 -11.153866 -13.696221 -15.784197 11.721395 4.938452 12.554255 -10.825398 -32.997241 -11.062172 25.278949 73.743153 1.713677 16.349394 -0.376789 -0.480240 -0.560310 -0.825840 18.128046 -8.027395 3.465337 3.468003 11.769355 -29.082248 -0.317821 -15.370020 77.689780 -2.222649 -12.747386 0.314339 -0.092700 1.546500 0.343070 -2.558884 -4.072547 -9.197263 0.598245 1.169215 49.992586 1.028692 3.356293 21.100155 0.517533 -1.432502 -13.992868 -5.454153 4.585931 42.383826 2.646700 -2.954860 -3.533400 20.997577 -31.207418 1.300545 18.878965 -14.948401 -4.890913 12.919183 -11.288889 -1.884339 -4.766144 2.382199 0.535870 0.667760 -0.304740 0.412290 -22.428292 35.260385 1.541752 -28.197728 15.989442 -21.427063 -43.211885 41.607275 -14.194352 2.081435 -1.407321 -0.749440 1.041350 0.742310 0.307150 
-0.375760 16.863160 0.015930 -0.922210 -13.495865 -14.192893 -15.829395 11.738064 4.994747 14.486137 -9.903619 -32.066926 -13.578978 27.574871 72.206980 1.905567 16.468099 -0.435906 -0.507130 -0.650640 -0.784650 18.058295 -7.875405 3.488171 -1.459575 12.144526 -29.670218 4.662507 -19.425396 77.344886 -2.405922 -13.200954 0.187555 -0.262210 1.387440 0.385420 -2.406698 -4.277772 -9.395227 -0.038726 2.224234 49.175573 1.625227 3.662271 19.328392 1.322628 -1.736167 -16.514791 -6.793449 5.319293 49.844411 3.527610 -3.233900 -2.669400 15.217023 -33.040976 5.796109 16.421368 -11.615684 -4.232034 12.326710 -10.652909 -1.700561 -4.584834 2.298564 0.656670 0.532630 -0.172150 0.363390 -17.601300 37.432357 2.237079 -24.516464 17.709332 -21.898670 -48.264040 47.614469 -18.269305 2.126152 -1.151190 -0.648710 0.918110 0.735720 0.281700 
-0.378260 16.924570 0.132220 -0.987630 -16.274579 -13.805980 -15.842302 11.517683 5.139778 18.185188 -8.483601 -31.532704 -16.741228 30.401141 70.326657 2.140579 16.590159 -0.491945 -0.487400 -0.614160 -0.777840 18.047373 -7.730352 3.570913 -5.558273 12.378578 -30.460088 9.256731 -22.919031 76.055475 -2.560772 -13.609887 0.081171 -0.353780 1.264250 0.459430 -2.408074 -4.059160 -9.614662 0.907349 2.233452 46.100406 1.891106 3.386595 18.377723 1.845162 -1.725911 -18.328937 -6.876189 5.889150 56.906842 2.770900 -2.660830 0.149710 10.011774 -34.182730 9.515327 13.421466 -10.302355 -2.207699 9.539834 -8.305237 -1.197459 -4.439803 2.212199 0.643910 0.475500 -0.061170 0.364020 -12.956707 38.584399 2.442548 -17.725089 21.972359 -20.712453 -53.980292 52.000047 -23.635418 2.124165 -0.923157 -0.488170 0.766820 0.685800 0.317150 
-0.371950 16.983310 0.253690 -1.911542 -19.179777 -13.064410 -15.821865 11.147128 5.349988 23.136330 -6.748063 -30.742235 -19.840526 33.217614 68.458161 2.232392 16.790418 -0.587021 -0.495850 -0.632950 -0.754080 18.094209 -7.665315 3.614649 -9.399977 12.216430 -30.776320 13.427475 -25.818172 73.758801 -2.646058 -13.852821 -0.028972 -0.417530 1.233580 0.579290 -2.576668 -3.528559 -9.779738 3.289278 1.098703 42.270611 1.196717 2.389846 18.410800 2.402853 -1.685712 -18.628154 -6.321364 6.297157 61.453824 0.161060 -1.142030 0.997100 6.809181 -33.739222 11.954406 9.934714 -10.480657 0.653438 4.721566 -4.416478 -0.916109 -4.465085 2.004570 0.636160 0.494160 0.005920 0.324280 -10.684259 37.827631 2.231194 -9.511006 26.681589 -18.395487 -57.430417 55.004969 -28.017241 1.954715 -0.625346 -0.388390 0.689780 0.724950 0.328770 
